<svg xmlns="http://www.w3.org/2000/svg" width="256" height="256" viewBox="0 0 100 100"><rect width="100" height="100" rx="50" fill="#4a4a4a"></rect><path fill="#fefefe" d="M35.72 60.38L35.72 60.38L36.80 59.60Q38.84 58.40 39.68 58.40L39.68 58.40Q41.54 58.40 43.70 61.76L43.70 61.76Q45.02 63.86 45.02 65.12Q45.02 66.38 44.21 67.22Q43.40 68.06 42.32 68.72Q41.24 69.38 40.25 69.98Q39.26 70.58 36.20 71.54Q33.14 72.50 30.29 72.50Q27.44 72.50 24.53 71.75Q21.62 71 18.53 69.23Q15.44 67.46 12.98 64.91Q10.52 62.36 8.93 58.37Q7.34 54.38 7.34 49.70Q7.34 45.02 8.90 41.21Q10.46 37.40 12.89 34.91Q15.32 32.42 18.44 30.74L18.44 30.74Q24.32 27.50 30.26 27.50L30.26 27.50Q33.08 27.50 35.99 28.37Q38.90 29.24 40.40 30.14L40.40 30.14L41.84 30.98Q42.92 31.64 43.52 32.06L43.52 32.06Q45.08 33.32 45.08 34.91Q45.08 36.50 43.82 38.24L43.82 38.24Q41.48 41.48 39.62 41.48L39.62 41.48Q38.54 41.48 36.56 40.16L36.56 40.16Q34.04 38.12 29.84 38.12L29.84 38.12Q25.94 38.12 22.16 40.82L22.16 40.82Q20.36 42.14 19.16 44.54Q17.96 46.94 17.96 49.97Q17.96 53.00 19.16 55.40Q20.36 57.80 22.22 59.18L22.22 59.18Q25.88 61.82 29.84 61.82L29.84 61.82Q31.70 61.82 33.35 61.34Q35 60.86 35.72 60.38ZM89.12 28.58L89.12 28.58Q92.66 30.32 92.66 32.42L92.66 32.42Q92.66 33.38 91.76 35.30L91.76 35.30L75.20 68.90Q74.54 70.22 73.19 71.03Q71.84 71.84 70.40 71.84L70.40 71.84L69.80 71.84Q68.30 71.84 66.95 71.03Q65.60 70.22 64.94 68.90L64.94 68.90L48.38 35.30Q47.48 33.38 47.48 32.42L47.48 32.42Q47.48 30.32 51.02 28.58L51.02 28.58Q53.00 27.56 54.05 27.56Q55.10 27.56 55.64 27.80Q56.18 28.04 56.66 28.64L56.66 28.64Q57.20 29.36 57.65 30.23Q58.10 31.10 59.96 35.21Q61.82 39.32 63.95 43.94Q66.08 48.56 67.97 52.67Q69.86 56.78 70.10 57.26L70.10 57.26L82.10 30.98Q82.58 29.84 82.94 29.18L82.94 29.18Q84.02 27.56 85.58 27.56Q87.14 27.56 89.12 28.58Z"></path></svg>